<?xml version="1.0" encoding="UTF-8"?>
<!-- Generator: visioncortex VTracer 0.6.12 -->
<svg version="1.1" xmlns="http://www.w3.org/2000/svg" width="443" height="387" viewBox="0 0 443 387">
<title>Artist cat</title>
<path d="M0 0 C2.87 0 5.73 -0.02 8.6 -0.05 C25.44 -0.1 42.21 1.5 58.57 5.63 C59 5.73 59 5.73 61.17 6.27 C80.26 11.15 97.99 19.43 113.7 31.32 C114.18 31.67 114.66 32.03 115.15 32.4 C127.88 42 137.45 53.73 145.7 67.32 C146.06 67.91 146.42 68.5 146.8 69.11 C166.74 102.24 169.22 144.47 160.52 181.47 C154.9 203.73 144.49 223.66 128.7 240.32 C128.89 240.55 128.89 240.55 129.84 241.71 C138.25 252.44 141.41 261.73 140.7 275.32 C140.18 279.02 139.5 282.66 138.7 286.32 C143.91 280.29 147.78 273.92 151.5 266.9 C153.51 263.19 155.34 259.99 158.7 257.32 C161.13 256.59 163.24 256.76 165.7 257.32 C168.14 258.88 168.14 258.88 169.7 261.32 C170.79 274.2 159.19 287.6 151.24 297.05 C115.69 337.89 65.85 354.16 13.7 361.32 C12.78 361.45 11.86 361.58 10.91 361.72 C-52.12 370.57 -132.46 359.61 -185.3 322.32 C-185.77 321.99 -186.24 321.66 -186.72 321.32 C-219.59 298.09 -240.62 265.18 -247.93 225.55 C-251.08 206.49 -250.79 185.14 -246.3 166.32 C-246.1 165.48 -245.9 164.64 -245.7 163.78 C-242.55 151 -238.1 139.12 -232.3 127.32 C-231.99 126.67 -231.68 126.02 -231.36 125.36 C-218.26 98.44 -197.01 74.29 -173 56.57 C-171.34 55.34 -169.69 54.09 -168.05 52.84 C-129.87 24.18 -83.18 8.73 -36.3 2.32 C-35.71 2.23 -35.12 2.14 -34.51 2.05 C-23 0.39 -11.62 -0.03 0 0 Z M-43.3 19.32 C-44.28 19.48 -45.27 19.65 -46.28 19.82 C-95.43 28.19 -143.48 49.15 -179.77 83.85 C-180.81 84.84 -181.85 85.83 -182.89 86.81 C-206.4 108.91 -222.88 137.9 -230.3 169.32 C-230.46 169.99 -230.62 170.66 -230.79 171.36 C-238.49 204.88 -232.35 241.99 -214.15 271.16 C-201.06 291.26 -182.33 309.33 -160.3 319.32 C-159.64 319.32 -158.98 319.32 -158.3 319.32 C-158.46 318.48 -158.62 317.64 -158.78 316.78 C-159.33 313.13 -159.53 309.62 -159.55 305.94 C-159.55 305.28 -159.56 304.62 -159.56 303.94 C-159.51 299.53 -158.95 295.99 -156.86 292.03 C-155.99 289.36 -156.4 287.99 -157.3 285.32 C-158.96 282.68 -160.87 280.26 -162.8 277.82 C-163.89 276.39 -164.99 274.97 -166.08 273.55 C-166.35 273.19 -166.35 273.19 -167.73 271.4 C-170.02 268.36 -172.21 265.26 -174.36 262.13 C-174.54 261.87 -174.54 261.87 -175.44 260.57 C-177.03 258.26 -178.47 256 -179.76 253.51 C-181.3 251.32 -181.3 251.32 -183.46 250.6 C-184.28 250.53 -185.09 250.45 -185.93 250.38 C-193.37 249.19 -198.82 245.46 -203.61 239.69 C-211.54 228.24 -212.74 213.17 -210.53 199.78 C-209.02 191.66 -206.1 184.62 -202.3 177.32 C-200.32 177.32 -198.34 177.32 -196.3 177.32 C-195.96 178.1 -195.62 178.89 -195.27 179.69 C-190.47 190.28 -184.44 195.55 -174.01 200.86 C-170.95 202.5 -168.16 204.36 -165.3 206.32 C-165.21 205.77 -165.11 205.23 -165.01 204.67 C-161.79 186.58 -155.82 171.99 -146.3 156.32 C-146.84 155.9 -147.39 155.49 -147.94 155.07 C-153.86 150.29 -156.61 146.52 -157.61 138.97 C-158.27 126.34 -151.5 116.21 -143.74 106.88 C-130.07 92.05 -111.19 82.03 -92.33 75.57 C-85.81 73.17 -85.81 73.17 -84.3 70.64 C-83.8 68.86 -83.52 67.15 -83.3 65.32 C-80.7 58.49 -77.2 54.63 -70.99 50.94 C-66.35 49.86 -61.76 50.06 -57.46 52.26 C-53.28 55.36 -52.55 58.36 -51.3 63.32 C-50.72 63.17 -50.15 63.02 -49.55 62.87 C-30.3 58.07 -9.78 53.18 8.7 63.32 C13.54 66.98 17.35 71.31 18.7 77.32 C19.21 81.65 19.51 85.96 19.7 90.32 C19.92 90.15 19.92 90.15 21.06 89.28 C22.45 88.24 23.84 87.2 25.23 86.16 C26.93 84.89 28.63 83.6 30.33 82.31 C37.85 76.67 46.33 70.32 56.07 70 C56.45 69.98 56.45 69.98 58.35 69.89 C61.75 70.51 63.25 71.89 65.7 74.32 C67.25 76.59 68.45 78.97 69.64 81.44 C69.81 81.79 69.81 81.79 70.67 83.56 C75.06 92.84 78.61 102.68 80.64 112.76 C83.04 124.6 83.04 124.6 88.2 128.57 C88.95 129.02 89.71 129.48 90.48 129.96 C92.7 131.32 92.7 131.32 94.86 133.49 C96.7 135.32 96.7 135.32 98.7 135.32 C98.97 135.9 99.23 136.48 99.5 137.08 C100.74 139.38 102.13 141.09 103.82 143.07 C117.87 160.86 122.13 182.13 120.7 204.32 C119.5 213.86 115.62 222.2 111.09 230.59 C109.7 233.32 109.7 233.32 109.7 235.32 C112.67 235.65 115.64 235.98 118.7 236.32 C118.76 234.98 118.82 233.64 118.88 232.26 C119.47 227.03 121.46 224.16 124.76 220.19 C145.68 193.23 151.86 157.73 147.93 124.29 C145.54 106.8 140.39 90.67 131.7 75.32 C131.15 74.32 130.59 73.33 130.02 72.3 C125.83 65.28 120.6 59.46 114.94 53.61 C113.91 52.53 112.9 51.43 111.9 50.32 C90.35 27.11 52.72 17.55 22.29 16.21 C19.84 16.15 17.39 16.13 14.94 16.11 C14.49 16.11 14.49 16.11 12.22 16.09 C9.34 16.07 6.46 16.07 3.57 16.07 C2.59 16.06 1.6 16.06 0.59 16.06 C-14.28 16.08 -28.64 16.64 -43.3 19.32 Z " fill="#0E0C0C" transform="translate(261.300048828125,11.684326171875)"/>
<path d="M0 0 C4.86 2.09 6.84 9.86 8.75 14.6 C11.43 21.54 13.19 28.36 14.37 35.71 C16.48 48.53 16.48 48.53 21.25 52.13 C22.84 53.07 24.44 53.99 26.06 54.88 C38.71 64.42 49.77 80.83 52.35 96.65 C54.75 114.43 52.9 130.58 43.06 145.88 C42.69 146.58 42.32 147.29 41.94 148.01 C40.19 150.76 38.58 152.43 35.39 153.38 C31.83 154.15 28.24 154.64 24.64 155.15 C17.52 156.19 10.82 158.49 4.06 160.88 C3.44 161.1 2.83 161.31 2.19 161.53 C-14.91 167.62 -31.87 176.72 -44.75 189.7 C-50.01 194.84 -54.19 196.19 -61.44 196.82 C-61.97 196.87 -61.97 196.87 -64.62 197.15 C-87.9 199.19 -113.07 200.12 -135.94 194.88 C-136.65 194.73 -137.35 194.58 -138.07 194.43 C-159.89 189.75 -182.47 180.58 -195.94 161.88 C-202.64 150.84 -206.53 139.7 -206.44 126.7 C-206.44 125.69 -206.43 124.68 -206.43 123.65 C-206.22 114.95 -204.54 107.76 -200.94 99.88 C-200.71 99.34 -200.47 98.8 -200.23 98.24 C-198.66 94.66 -196.85 91.28 -194.94 87.88 C-194.56 86.99 -194.17 86.1 -193.78 85.18 C-192.12 82.1 -190.96 80.7 -187.94 78.88 C-183.81 78.11 -179.63 78.2 -175.44 78.18 C-133.13 77.76 -85.61 55.86 -52.43 30.74 C-50.31 29.52 -48.43 29.92 -46.06 30.12 C-38.2 30.71 -38.2 30.71 -34.89 28.53 C-33.32 26.63 -33.32 26.63 -31.75 24.43 C-29.54 21.32 -27.05 18.66 -24.38 15.95 C-23.88 15.44 -23.37 14.93 -22.86 14.4 C-17.93 9.58 -7.23 -0.44 0 0 Z " fill="#FCFCFA" transform="translate(315.94140625,94.1171875)"/>
<path d="M0 0 C4.86 2.09 6.84 9.86 8.75 14.6 C11.43 21.54 13.19 28.36 14.37 35.71 C16.48 48.53 16.48 48.53 21.25 52.13 C22.84 53.07 24.44 53.99 26.06 54.88 C38.71 64.42 49.77 80.83 52.35 96.65 C54.16 110.05 53.25 122.04 49.06 134.88 C48.41 134.94 47.75 135 47.08 135.07 C46.21 135.15 45.33 135.23 44.43 135.32 C43.58 135.4 42.72 135.48 41.83 135.57 C39.92 135.78 38.02 136.07 36.13 136.4 C14.25 139.83 -9.12 131.24 -26.78 118.56 C-30.94 115.46 -34.96 112.2 -38.94 108.88 C-39.74 108.23 -40.53 107.58 -41.35 106.91 C-46.04 102.95 -50.06 98.63 -53.94 93.88 C-54.35 93.38 -54.76 92.88 -55.19 92.37 C-63.72 81.97 -70.84 71.25 -76.94 59.26 C-77.24 58.67 -77.55 58.07 -77.86 57.46 C-79.22 54.72 -79.94 52.99 -79.94 49.88 C-80.6 49.55 -81.26 49.22 -81.94 48.88 C-81.73 48.77 -81.73 48.77 -80.66 48.18 C-58.74 36.14 -58.74 36.14 -52.54 30.64 C-50.35 29.6 -48.42 29.92 -46.06 30.12 C-38.2 30.71 -38.2 30.71 -34.89 28.53 C-33.32 26.63 -33.32 26.63 -31.75 24.43 C-29.54 21.32 -27.05 18.66 -24.38 15.95 C-23.88 15.44 -23.37 14.93 -22.86 14.4 C-17.93 9.58 -7.23 -0.44 0 0 Z " fill="#FCA749" transform="translate(315.94140625,94.1171875)"/>
<path d="M0 0 C4.09 3.71 5.97 7.99 6.34 13.41 C6.38 15 6.39 16.6 6.38 18.19 C6.37 19.03 6.37 19.87 6.36 20.73 C6.15 28.41 4.35 34.24 0.88 41.12 C0.45 42.05 0.03 42.98 -0.41 43.94 C-12.11 67.85 -37.17 79.72 -61.05 88.14 C-69.55 90.87 -78.34 92.54 -87.12 94.12 C-88.13 94.32 -89.13 94.52 -90.16 94.72 C-99 95.92 -110.76 97.49 -118.62 92.62 C-123.36 88.61 -126.68 82.46 -127.32 76.23 C-127.73 65.28 -127.54 56.88 -122.12 47.12 C-121.66 46.17 -121.2 45.21 -120.73 44.22 C-108.63 20.86 -82.61 7.02 -58.59 -1.11 C-57.77 -1.36 -56.96 -1.61 -56.12 -1.88 C-55.25 -2.15 -54.38 -2.42 -53.48 -2.7 C-37.18 -7.47 -14.56 -11.58 0 0 Z " fill="#F9D9A1" transform="translate(385.125,262.875)"/>
<path d="M0 0 C1.02 -0.03 2.03 -0.07 3.08 -0.1 C10.32 -0.15 16.03 1.18 22 5.44 C25.66 9.62 25.58 12.92 25.38 18.35 C24.47 25.74 21.06 29.87 15.35 34.37 C-11.57 54.45 -45.28 70.15 -78.16 77.05 C-80.07 77.45 -81.96 77.89 -83.86 78.34 C-91.23 79.97 -98.45 80.75 -106 80.88 C-106.78 80.9 -107.55 80.92 -108.35 80.94 C-114.43 80.92 -120 79.42 -124.42 75.03 C-127.04 71.78 -127.56 68.6 -127.31 64.5 C-125.47 52.22 -115.5 42.68 -106 35.44 C-94.49 27.06 -77.6 14.93 -63 13.44 C-60.89 14.32 -60.89 14.32 -59 15.44 C-54.76 17.56 -49.59 17.06 -45 16.44 C-41.42 14.55 -38.66 12.21 -37.23 8.37 C-35.37 5.45 -32.69 5.09 -29.5 4.31 C-28.93 4.16 -28.35 4 -27.76 3.84 C-25.85 3.33 -23.93 2.88 -22 2.44 C-21.25 2.26 -20.5 2.08 -19.72 1.89 C-13.13 0.42 -6.74 0.04 0 0 Z " fill="#E93E35" transform="translate(243,80.5625)"/>
<path d="M0 0 C0.33 0.16 0.33 0.16 2 1 C-0.59 11.08 -3.26 20.69 -8 30 C-8.65 31.32 -9.3 32.65 -9.95 33.98 C-15.37 44.97 -15.37 44.97 -18.15 49.66 C-19.76 52.44 -20.74 55.05 -21.5 58.19 C-22.64 62.18 -23.5 64.54 -27 67 C-28.27 67.62 -29.54 68.22 -30.81 68.81 C-33.92 70.28 -36.02 71.82 -38.38 74.31 C-47.76 84.2 -61.96 91.98 -75 96 C-75.58 96.18 -76.15 96.36 -76.75 96.54 C-82.22 98.08 -87.34 98.24 -93 98.12 C-93.44 98.12 -93.44 98.12 -95.64 98.1 C-97.76 98.07 -99.88 98.04 -102 98 C-102.82 96.11 -103.63 94.21 -104.44 92.31 C-104.66 91.78 -104.66 91.78 -105.81 89.11 C-110.99 75.58 -109.58 57.73 -103.74 44.63 C-103.5 44.09 -103.25 43.55 -103 43 C-102.76 42.46 -102.53 41.92 -102.29 41.36 C-100.72 37.78 -98.91 34.4 -97 31 C-96.62 30.11 -96.23 29.21 -95.84 28.29 C-94.18 25.21 -93.02 23.82 -90 22 C-85.87 21.22 -81.69 21.32 -77.5 21.3 C-52.15 21.04 -26.62 12.22 -3.88 1.59 C-2.61 1 -1.31 0.49 0 0 Z " fill="#FBA94D" transform="translate(218,151)"/>
<path d="M0 0 C1.35 0.27 2.71 0.54 4.06 0.81 C4.97 0.99 5.88 1.17 6.81 1.36 C9.11 1.82 11.4 2.29 13.69 2.77 C14.33 2.9 14.97 3.03 15.63 3.16 C16.88 3.42 18.13 3.68 19.38 3.95 C27.76 5.66 36.02 6.15 44.55 6.13 C45.05 6.13 45.05 6.13 47.53 6.14 C49.6 6.14 51.66 6.13 53.73 6.13 C56.86 6.13 59.99 6.13 63.12 6.14 C65.14 6.14 67.16 6.13 69.18 6.13 C70.1 6.13 71.02 6.14 71.97 6.14 C78.36 6.12 84.65 5.67 91 5 C89.93 7.7 88.84 10.39 87.71 13.07 C82.84 25.43 81.31 39.5 86.31 52.06 C87.87 55.31 89.46 57.49 92 60 C92 60.66 92 61.32 92 62 C89.23 62.78 86.76 63.13 83.88 63.15 C83.08 63.15 82.28 63.16 81.45 63.16 C81.02 63.17 81.02 63.17 78.84 63.17 C78.38 63.17 78.38 63.17 76.09 63.18 C74.17 63.18 72.24 63.19 70.32 63.19 C67.43 63.19 64.55 63.21 61.67 63.22 C50.57 63.26 39.76 62.7 28.76 61.22 C27.17 61.02 25.57 60.87 23.97 60.72 C21.61 60.49 20.05 60.2 18 59 C16.5 56.84 15.58 54.68 14.6 52.24 C13.03 48.68 10.65 45.83 8.27 42.78 C1.17 33.57 1.17 33.57 0.67 28.92 C1.25 26.25 1.25 26.25 2.12 23.68 C4.49 16.45 3.73 8.19 0.66 1.29 C0.55 1.08 0.55 1.08 0 0 Z " fill="#F9F9F8" transform="translate(165,298)"/>
<path d="M0 0 C5.56 -0.31 9.42 0.7 13.74 4.25 C18.51 8.98 21.93 13.19 22.17 20.12 C22.2 27.22 21.53 32.6 16.74 38.25 C14.56 40.25 12.29 41.75 9.74 43.25 C9.48 43.44 9.48 43.44 8.16 44.43 C2.82 48.17 -2.96 48.19 -9.26 47.25 C-14.92 45.28 -19.09 41.16 -22.18 36.11 C-24.68 29.45 -24.65 21.43 -22.4 14.68 C-21.2 12.58 -19.94 10.99 -18.26 9.25 C-17.96 8.92 -17.96 8.92 -16.43 7.29 C-11.26 2.29 -6.99 0.76 0 0 Z " fill="#FAFAF9" transform="translate(136.2578125,291.75390625)"/>
<path d="M0 0 C0.49 0.68 0.99 1.36 1.5 2.06 C6.17 7.81 11.66 11.95 18.12 15.5 C24.44 18.99 29.22 23.21 32 30 C32.23 32.44 32.23 32.44 32.19 35 C32.18 35.85 32.17 36.69 32.17 37.56 C31.78 43.23 31.78 43.23 29.29 45.7 C24.27 49.19 20.46 50.89 14.29 50.44 C8.7 49.36 6.08 46.39 2.81 41.88 C-4.65 29.81 -4.23 16.5 -1.54 2.98 C-1 1 -1 1 0 0 Z " fill="#DBA051" transform="translate(62,203)"/>
<path d="M0 0 C1.35 0.27 2.71 0.54 4.06 0.81 C4.98 0.99 5.89 1.18 6.84 1.36 C9.05 1.81 11.26 2.26 13.48 2.73 C22.28 4.57 31.07 5.92 40 7 C38.05 19.12 28.71 30.24 18.95 37.31 C12.01 42 12.01 42 8 42 C4.92 39.08 2.75 35.86 1 32 C0.99 29.09 1.55 26.74 2.3 23.93 C4.24 15.82 3.79 7.46 0 0 Z " fill="#FAAE56" transform="translate(165,298)"/>
<path d="M0 0 C0.33 -0 0.33 -0 2.03 -0.02 C4.76 0.51 6.12 1.39 8.06 3.38 C8.31 5.68 8.31 5.68 8.06 8.25 C7.9 13.07 7.9 13.07 9.5 16.12 C11.84 18.18 14.11 19.68 16.75 21.31 C20.84 23.89 20.84 23.89 21.87 26.09 C22.12 27.75 22.12 27.75 22.06 30.38 C19.76 32.59 18.54 33.35 15.31 33.5 C11.33 32.12 9.03 30.03 5.99 27.16 C4.1 25.41 2.15 23.88 0.06 22.38 C-0.18 23.11 -0.42 23.85 -0.67 24.61 C-2.11 27.75 -3.68 29.39 -6.25 31.69 C-7.01 32.38 -7.77 33.08 -8.55 33.8 C-11.31 35.62 -12.69 35.8 -15.94 35.38 C-17.81 34.19 -17.81 34.19 -18.94 32.38 C-19.06 30.12 -19.06 30.12 -17.94 27.38 C-16.27 25.56 -14.51 23.89 -12.73 22.18 C-9.37 18.79 -7.06 15.69 -6.8 10.82 C-6.85 9.08 -6.94 7.34 -7.09 5.61 C-6.94 3.38 -6.94 3.38 -5.69 1.6 C-3.61 0.15 -2.51 -0.03 0 0 Z " fill="#0B0B0B" transform="translate(239.9375,207.625)"/>
<path d="M0 0 C0.66 0.56 1.32 1.11 2 1.69 C2.3 1.88 2.3 1.88 3.81 2.88 C5.83 5.96 5.6 9.13 5 12.69 C3.03 17.57 -0.52 20.17 -5 22.69 C-10.02 24.28 -16.91 25.11 -21.79 22.86 C-24.32 20.87 -25.8 18.96 -26.31 15.77 C-26.57 11.24 -26.3 8.4 -23.38 4.81 C-16.97 -1.59 -8.5 -3.72 0 0 Z " fill="#4CC39B" transform="translate(309,324.3125)"/>
<path d="M0 0 C2.51 1.58 3.37 2.18 4.69 4.69 C5.59 9.52 4.88 13.95 2.21 18.08 C-1.67 22.17 -7.49 24.88 -13.12 25.25 C-17.55 24.47 -19.54 22.46 -22.62 19.38 C-23.8 16.48 -23.83 13.71 -23.31 10.69 C-21.32 6.02 -17.48 2.48 -13.31 -0.31 C-8.66 -1.86 -4.46 -2.09 0 0 Z " fill="#3A8EE7" transform="translate(340.3125,274.3125)"/>
<path d="M0 0 C2.38 1.95 3.77 3.42 4.47 6.45 C4.73 11.76 3.3 14.86 -0.1 18.92 C-3.92 22.59 -8.24 24.81 -13.56 25.19 C-17.81 24.56 -19.63 23.37 -22.94 20.69 C-24.72 17.13 -24.7 13.56 -23.94 9.69 C-18.54 0.87 -10.1 -4.51 0 0 Z " fill="#FDCB39" transform="translate(304.9375,292.3125)"/>
<path d="M0 0 C3.03 1.52 4.4 2.43 5.62 5.61 C6.4 9.23 6.12 12.17 4.22 15.45 C0.6 20.05 -3.89 24.39 -9.83 25.27 C-13.57 25.46 -16.35 25.25 -19.5 23.12 C-22.03 20.68 -22.52 18.6 -22.75 15.12 C-22.46 10.35 -21 7.72 -17.62 4.41 C-17.36 4.17 -17.36 4.17 -16 3 C-15.28 2.36 -14.56 1.72 -13.81 1.06 C-9.25 -0.66 -4.81 -0.64 0 0 Z " fill="#E93D34" transform="translate(365,302)"/>
<path d="M0 0 C4.2 1.7 6.2 3.84 8 8 C8.63 12.94 8.18 15.76 5.12 19.71 C2.88 22.29 1.44 23.75 -2.04 24.35 C-6.21 24.62 -9.11 24.4 -12.44 21.75 C-15.7 18.51 -16.86 16.26 -17.38 11.62 C-17.26 7.43 -15.61 5.21 -13 2 C-9.32 -1.18 -4.58 -0.47 0 0 Z " fill="#0C0703" transform="translate(304,187)"/>
<path d="M0 0 C3.46 1.78 6.33 3.94 7.57 7.75 C7.88 12.38 5.97 15.6 3 19 C0.7 21.57 -0.91 22.8 -4.33 23.42 C-8.52 23.65 -12.06 23.5 -15.62 21.12 C-18.09 18.66 -18.49 16.5 -18.69 13.06 C-18.42 8.76 -17.42 6.27 -14.48 3.16 C-10.01 -0.33 -5.52 -1.05 0 0 Z " fill="#CCC34C" transform="translate(374,269)"/>
<path d="M0 0 C3.21 1.5 5.77 3.24 8 6 C8.82 10.34 9.01 15.01 6.98 19.02 C4.41 22.21 2.36 23.65 -1.83 24.27 C-5.86 24.48 -8.26 24.23 -11.44 21.62 C-14.57 18.71 -15.21 16.51 -15.38 12.25 C-15.35 7.64 -14.47 5.34 -11.29 2.06 C-7.9 -0.72 -4.18 -0.46 0 0 Z " fill="#080603" transform="translate(188,195)"/>
<path d="M0 0 C0.49 0.68 0.99 1.36 1.5 2.06 C6.31 8.04 12.24 12.48 19 16 C19.05 17.46 19.09 18.92 19.12 20.38 C19.15 21.19 19.17 22 19.2 22.84 C19 25 19 25 17 27 C11.67 27.33 11.67 27.33 9 26 C9.02 26.97 9.04 27.94 9.06 28.94 C9 32 9 32 8 33 C6.47 32.91 4.95 32.75 3.44 32.56 C2.61 32.46 1.78 32.36 0.93 32.25 C0.3 32.17 -0.34 32.09 -1 32 C-2.95 27.93 -3.31 24.32 -3.25 19.88 C-3.25 19.22 -3.24 18.57 -3.24 17.89 C-2.96 2.96 -2.96 2.96 0 0 Z " fill="#2988EB" transform="translate(62,203)"/>
<path d="M0 0 C4.38 1.58 6.58 4.81 9.31 8.38 C9.78 8.95 10.25 9.53 10.73 10.12 C14 14.36 14 14.36 14 17.24 C12.8 19.35 11.62 20.42 9.62 21.81 C9.02 22.25 8.41 22.69 7.79 23.14 C6 24 6 24 3 23 C1.03 20.92 -0.54 18.53 -2.19 16.19 C-2.65 15.56 -3.11 14.93 -3.59 14.28 C-4.03 13.67 -4.47 13.05 -4.92 12.42 C-5.32 11.86 -5.72 11.3 -6.13 10.72 C-7.18 8.64 -7.28 7.3 -7 5 C-5.47 3.52 -5.47 3.52 -3.5 2.25 C-2.85 1.82 -2.2 1.39 -1.53 0.95 C-1.03 0.64 -0.52 0.32 0 0 Z " fill="#A75E0E" transform="translate(107,268)"/>
<path d="M0 0 C1.24 1.44 1.24 1.44 2.6 3.43 C3.09 4.14 3.58 4.86 4.09 5.59 C4.59 6.34 5.1 7.1 5.62 7.88 C6.14 8.62 6.66 9.37 7.19 10.14 C11 15.73 11 15.73 11 18 C8.32 17.73 5.66 17.38 3 17 C2.28 16.9 1.57 16.8 0.83 16.7 C-2.93 16 -5.25 15.28 -7.56 12.12 C-9 9 -9 9 -9.12 6.94 C-7.24 3.7 -3.93 0 0 0 Z " fill="#AF620E" transform="translate(161,337)"/>
<path d="M0 0 C2.88 0.44 2.88 0.44 4.88 2.44 C5.09 7.69 4.05 12.2 0.88 16.44 C-0.12 17.44 -0.12 17.44 -3.19 17.5 C-4.16 17.48 -5.13 17.46 -6.12 17.44 C-7.98 13.73 -7.58 9.48 -7.12 5.44 C-5.72 1.8 -3.92 0.55 0 0 Z " fill="#E23A31" transform="translate(195.125,71.5625)"/>
<path d="M0 0 C4.32 1.54 5.86 4.11 8 8 C6.9 11.3 6.31 11.79 3.56 13.69 C2.95 14.12 2.33 14.56 1.69 15.01 C0 16 0 16 -2 16 C-3.29 14.36 -3.29 14.36 -4.62 12.19 C-5.07 11.48 -5.52 10.77 -5.98 10.04 C-7 8 -7 8 -7 5 C-5.47 3.61 -5.47 3.61 -3.5 2.31 C-2.85 1.88 -2.2 1.44 -1.53 0.99 C-1.03 0.66 -0.52 0.34 0 0 Z " fill="#D3A25C" transform="translate(96,253)"/>
<path d="M0 0 C0.66 0.33 1.32 0.66 2 1 C-3.61 6.61 -9.22 12.22 -15 18 C-15 13.98 -13.57 13.05 -10.88 10.12 C-10.47 9.68 -10.06 9.24 -9.64 8.78 C-6.63 5.55 -3.5 2.69 0 0 Z " fill="#4A4B4B" transform="translate(128,108)"/>
<path d="M0 0 C0 0.33 0 0.66 0 1 C-4.62 1 -9.24 1 -14 1 C-14.66 2.65 -15.32 4.3 -16 6 C-18.12 6.81 -18.12 6.81 -20 7 C-20 7.66 -20 8.32 -20 9 C-20.66 8.67 -21.32 8.34 -22 8 C-17.57 -2.33 -9.7 -0.83 0 0 Z " fill="#E29038" transform="translate(144,173)"/>
</svg>
