<?xml version="1.0" encoding="UTF-8"?>
<!-- Generator: visioncortex VTracer 0.6.12 -->
<svg version="1.1" xmlns="http://www.w3.org/2000/svg" width="436" height="387" viewBox="0 0 436 387">
<title>Developer cat</title>
<path d="M0 0 C0.86 -0 1.73 -0 2.62 -0 C16.72 0.02 30.41 0.66 44.31 3.25 C44.77 3.34 44.77 3.34 47.11 3.77 C72.59 8.68 98.03 17.59 118.31 34.25 C118.82 34.66 119.33 35.06 119.86 35.48 C132.12 45.29 141.83 56.04 150.31 69.25 C150.93 70.21 151.55 71.16 152.18 72.14 C159.03 83.29 163.74 95.32 167.12 107.94 C167.32 108.66 167.51 109.38 167.72 110.13 C170.75 122.17 171.7 134.13 171.62 146.5 C171.62 146.84 171.62 146.84 171.62 148.55 C171.4 182.98 159.81 215.56 135.31 240.25 C132.69 242.37 130.46 242.74 127.04 242.63 C125.31 242.25 125.31 242.25 122.81 240.12 C121.31 237.25 121.31 237.25 121.12 234.44 C122.54 230.64 124.51 228.56 127.23 225.61 C146.35 203.98 154.53 175.22 154.56 146.81 C154.56 146.19 154.56 145.57 154.56 144.93 C154.51 111.25 141.82 79.55 118.31 55.25 C117.6 54.51 116.89 53.77 116.15 53.01 C104.42 41.68 89.4 34.08 74.31 28.25 C73.74 28.02 73.17 27.79 72.58 27.56 C19.13 6.44 -50.38 14.3 -102.17 36.15 C-120.27 44.07 -137.27 53.88 -152.69 66.25 C-153.2 66.66 -153.72 67.08 -154.25 67.5 C-186.84 93.82 -207.69 127.58 -217.69 168.25 C-217.88 169.03 -218.07 169.81 -218.27 170.62 C-223.24 191.82 -223.1 218.16 -217.69 239.25 C-217.51 239.96 -217.33 240.68 -217.15 241.41 C-214.67 251.19 -211.38 260.32 -206.69 269.25 C-206.38 269.83 -206.08 270.41 -205.77 271 C-200.56 280.81 -194.67 289.44 -186.69 297.25 C-186.6 297 -186.6 297 -186.14 295.76 C-180.58 280.7 -174.47 268.99 -163 257.57 C-161.21 255.68 -159.75 254.14 -159.57 251.46 C-159.65 250.13 -159.73 248.8 -159.82 247.46 C-159.39 240.41 -154.58 234.88 -149.69 230.25 C-150.28 229.52 -150.87 228.8 -151.48 228.05 C-163.29 213.18 -168.3 196.14 -166.69 177.25 C-163.97 154.76 -150.94 135.11 -133.81 120.75 C-131.69 119.25 -131.69 119.25 -129.69 119.25 C-129.67 118.95 -129.67 118.95 -129.56 117.41 C-128.4 103.59 -124.02 90.34 -118.19 77.81 C-118.01 77.43 -118.01 77.43 -117.11 75.47 C-114.38 69.87 -111.19 64.53 -105.11 62.31 C-92.62 62.01 -81.65 71.69 -72.69 79.25 C-71.93 79.89 -71.17 80.52 -70.39 81.18 C-67.06 84.01 -64.23 86.67 -61.69 90.25 C-61.37 90.2 -61.37 90.2 -59.77 89.92 C-57.7 89.57 -55.64 89.23 -53.57 88.89 C-50.87 88.46 -48.18 87.96 -45.49 87.45 C-34.92 85.53 -24.59 84.97 -13.88 85 C-13.22 85 -12.57 85 -11.9 85 C-5.41 85.02 0.89 85.24 7.31 86.25 C7.56 85.69 7.81 85.12 8.07 84.54 C15.02 71.74 31.41 58.84 45.21 54.69 C48.26 54.05 50.37 54.25 53.31 55.25 C57.55 58.15 59.84 61.16 62.25 65.56 C62.42 65.87 62.42 65.87 63.28 67.43 C68.2 76.5 71.78 85.65 74.05 95.72 C76.81 107.84 76.81 107.84 81.81 111.69 C83.3 112.56 84.8 113.42 86.31 114.25 C100.54 124.76 110.15 142.95 113.92 160.01 C116.2 178.91 113.9 195.7 104.8 212.36 C102.57 216.69 102.57 216.69 102.31 219.25 C103.26 220.73 104.22 222.2 105.25 223.62 C108.21 228.18 109.04 233.91 108.31 239.25 C107.45 242.63 106.43 245.94 105.31 249.25 C105.59 249.49 105.59 249.49 106.96 250.73 C119.18 262.21 128.14 277.71 131.31 294.25 C131.36 295.92 131.37 297.58 131.31 299.25 C141.41 291.24 148.94 281.62 155.18 270.41 C157.46 266.37 159.79 263.3 163.31 260.25 C166.36 259.62 168.11 259.55 170.84 261.14 C172.37 262.41 173.34 263.52 174.31 265.25 C175.23 276.46 163.32 288.66 156.59 296.76 C154 299.78 151.22 302.54 148.31 305.25 C147.93 305.64 147.93 305.64 146 307.62 C133.27 320.23 119.18 329.98 103.31 338.25 C103.01 338.41 103.01 338.41 101.48 339.21 C63.1 358.94 16.99 363.49 -25.56 363.44 C-26.52 363.44 -27.47 363.44 -28.45 363.44 C-42.96 363.41 -57.28 363.11 -71.69 361.25 C-72.71 361.12 -73.74 360.99 -74.8 360.86 C-115.83 355.55 -159.14 343.31 -190.69 315.25 C-191.59 314.49 -192.5 313.72 -193.41 312.96 C-218.16 291.84 -232.05 259.94 -236.69 228.25 C-236.78 227.6 -236.88 226.96 -236.98 226.3 C-243.06 179.49 -229.81 130.02 -201.69 92.25 C-198.59 88.28 -195.32 84.47 -191.98 80.71 C-190.79 79.36 -189.62 78 -188.45 76.64 C-163.98 48.55 -131.1 29.5 -96.69 16.25 C-95.9 15.95 -95.11 15.64 -94.3 15.33 C-73.71 7.55 -51.49 3.61 -29.69 1.25 C-29.29 1.2 -29.29 1.2 -27.28 0.96 C-18.21 -0.01 -9.11 0.01 0 0 Z " fill="#0D0C0C" transform="translate(249.6875,11.75)"/>
<path d="M0 0 C4.74 2.09 6.86 8.22 8.71 12.8 C8.85 13.16 8.85 13.16 9.56 15 C9.87 15.77 10.17 16.54 10.49 17.33 C12.48 22.59 13.8 27.78 14.89 33.3 C17.52 46.55 17.52 46.55 23 50.88 C24.68 51.94 26.39 52.96 28.12 53.94 C38.34 61.32 45.3 72.48 50.12 83.94 C50.47 84.74 50.81 85.54 51.16 86.36 C53.38 92.82 53.4 99.31 53.44 106.06 C53.44 106.53 53.44 106.53 53.45 108.88 C53.36 118.32 51.57 125.9 47.19 134.25 C46.84 134.94 46.49 135.63 46.13 136.34 C42.56 143.33 42.56 143.33 40.12 145.94 C37.83 146.44 37.83 146.44 35.15 146.5 C29.03 146.85 23.55 148.19 17.69 149.94 C16.65 150.25 15.61 150.55 14.55 150.87 C-0.12 155.38 -20.68 162.03 -31.48 173.67 C-37.9 180.09 -44.65 179.85 -53.21 179.88 C-55.1 179.87 -56.98 179.85 -58.87 179.83 C-60.83 179.83 -62.79 179.84 -64.75 179.85 C-68.84 179.85 -72.94 179.83 -77.03 179.8 C-82.26 179.75 -87.48 179.76 -92.71 179.79 C-96.75 179.81 -100.79 179.8 -104.83 179.78 C-106.76 179.77 -108.68 179.77 -110.61 179.79 C-129.18 179.86 -129.18 179.86 -137.88 172.94 C-148.48 167.24 -161.28 162.45 -173.25 161.12 C-181.06 159.97 -185.21 155.44 -189.84 149.35 C-199.15 135.59 -201.55 120.9 -199.45 104.65 C-196.19 89.83 -187.84 77.85 -177.38 67.19 C-176.94 66.74 -176.5 66.29 -176.05 65.83 C-173.55 63.36 -171.12 61.45 -168.12 59.61 C-165.42 57.72 -164.4 56.5 -163.78 53.25 C-163.62 51.81 -163.49 50.38 -163.38 48.94 C-161.64 34.77 -157.11 20.31 -149.88 7.94 C-138.78 9.51 -129.17 20.31 -121.79 28.21 C-121.26 28.77 -120.74 29.32 -120.19 29.9 C-119.17 30.99 -118.15 32.09 -117.16 33.22 C-115.79 34.66 -114.56 35.87 -112.88 36.94 C-109.99 36.89 -109.99 36.89 -106.88 35.94 C-105.67 35.63 -104.46 35.33 -103.25 35.04 C-101.3 34.53 -99.35 34.01 -97.41 33.49 C-86.59 30.68 -76.02 29.62 -64.89 29.73 C-62.98 29.75 -61.07 29.75 -59.16 29.75 C-53.32 29.77 -47.64 29.89 -41.88 30.94 C-39.03 31.42 -36.69 31.71 -33.88 30.94 C-32.11 29.28 -30.94 27.5 -29.61 25.48 C-24.36 17.79 -10.11 -0.34 0 0 Z " fill="#FBA94D" transform="translate(296.875,80.0625)"/>
<path d="M0 0 C3.44 0.86 4.7 2.73 6.5 5.62 C8.23 9.21 9.73 12.88 11.25 16.56 C18.2 32.9 26.34 48.23 39.5 60.5 C42.51 63.32 43.53 65.95 44.77 69.83 C45.98 72.81 47.79 74.02 50.5 75.62 C51.04 75.77 51.04 75.77 53.79 76.49 C57.56 77.52 60.41 79.26 63.62 81.44 C75.38 89.01 87.88 93.01 101.88 92.81 C102.76 92.81 103.64 92.81 104.55 92.81 C110.58 92.77 116.51 92.33 122.5 91.62 C121.88 95.74 120.51 98.98 118.62 102.69 C118.11 103.71 117.6 104.73 117.07 105.79 C114.47 110.49 114.47 110.49 112.5 112.62 C110.2 113.13 110.2 113.13 107.53 113.19 C101.4 113.54 95.93 114.88 90.06 116.62 C89.03 116.93 87.99 117.24 86.92 117.56 C72.25 122.07 51.69 128.72 40.9 140.35 C34.47 146.77 27.72 146.54 19.17 146.57 C17.28 146.56 15.39 146.54 13.5 146.52 C11.55 146.52 9.59 146.53 7.63 146.53 C3.53 146.54 -0.56 146.52 -4.65 146.48 C-9.88 146.44 -15.11 146.45 -20.33 146.48 C-24.37 146.5 -28.42 146.49 -32.46 146.47 C-34.38 146.46 -36.31 146.46 -38.24 146.47 C-56.81 146.55 -56.81 146.55 -65.5 139.62 C-76.11 133.93 -88.9 129.13 -100.88 127.81 C-108.57 126.7 -112.76 122.14 -117.39 116.2 C-121.5 110.34 -121.5 110.34 -121.5 106.62 C-120.99 106.61 -120.99 106.61 -118.39 106.51 C-95.63 105.51 -74.04 96.81 -57.37 81.1 C-55.27 79.44 -53.32 78.67 -50.81 77.75 C-46.17 75.88 -44.95 73.5 -42.86 69.09 C-41.32 66.3 -39.52 64.31 -37.31 62 C-24.15 47.84 -15.99 30.3 -9.29 12.36 C-5.06 1.26 -5.06 1.26 0 0 Z " fill="#FCFCFA" transform="translate(224.5,113.375)"/>
<path d="M0 0 C0.71 -0 1.42 -0.01 2.16 -0.01 C8.89 -0.03 15.62 -0.05 22.35 -0.07 C30.89 -0.08 39.43 -0.12 47.97 -0.17 C54.02 -0.21 60.07 -0.23 66.12 -0.24 C69.72 -0.24 73.32 -0.25 76.92 -0.29 C80.29 -0.32 83.65 -0.32 87.02 -0.31 C88.26 -0.31 89.49 -0.32 90.72 -0.34 C101.19 -0.48 101.19 -0.48 104.47 2.65 C106.41 5.51 107.02 7.31 107.41 10.73 C107.48 11.26 107.48 11.26 107.83 13.92 C107.97 15.03 108.11 16.13 108.25 17.27 C108.63 19.51 109.03 21.74 109.43 23.97 C109.64 25.12 109.85 26.27 110.05 27.42 C110.1 27.71 110.1 27.71 110.37 29.17 C110.7 31.01 111.02 32.85 111.35 34.68 C112.29 39.9 113.22 45.13 114.17 50.34 C115.79 59.29 117.13 68.25 118.25 77.27 C118.43 78.75 118.62 80.23 118.8 81.71 C118.95 82.9 119.1 84.08 119.25 85.27 C116.05 85.92 112.84 86.53 109.62 87.15 C109.19 87.24 109.19 87.24 107 87.68 C89.16 91.05 71.05 91.62 52.94 91.52 C51.96 91.52 50.98 91.52 49.98 91.52 C34.98 91.47 20.15 91.08 5.25 89.27 C4.35 89.17 3.44 89.06 2.51 88.95 C-7.13 87.77 -16.67 86.2 -26.19 84.27 C-26.58 84.2 -26.58 84.2 -28.54 83.81 C-29.27 83.65 -29.99 83.5 -30.75 83.34 C-31.38 83.2 -32.01 83.07 -32.66 82.93 C-35.7 81.97 -38.07 81.04 -40.75 79.27 C-41.74 76.66 -42.25 74.69 -42.66 71.98 C-42.79 71.24 -42.92 70.51 -43.05 69.75 C-43.48 67.35 -43.86 64.94 -44.25 62.52 C-44.54 60.86 -44.83 59.19 -45.12 57.52 C-45.56 54.97 -46.01 52.41 -46.44 49.86 C-47.38 44.29 -48.41 38.74 -49.53 33.21 C-49.67 32.5 -49.81 31.8 -49.96 31.07 C-50.49 28.38 -51.04 25.7 -51.59 23.02 C-54.31 9.68 -54.31 9.68 -53.75 3.27 C-51.47 1 -51.1 1 -48.04 0.87 C-47.26 0.83 -46.48 0.79 -45.67 0.76 C-44.81 0.73 -43.94 0.7 -43.05 0.67 C-42.58 0.65 -42.58 0.65 -40.25 0.55 C-26.84 0.06 -13.42 0.05 0 0 Z " fill="#818287" transform="translate(172.75,269.7265625)"/>
<path d="M0 0 C2.41 2.6 2.58 5.16 2.75 8.62 C2.41 14.86 0.5 17.81 -3.88 22.19 C-3.88 24.85 -3.41 26.54 -1.69 28.6 C-0.1 30.17 1.53 31.68 3.19 33.19 C9.54 39.25 14.04 45.45 18.12 53.19 C18.54 53.98 18.96 54.77 19.39 55.58 C22.26 61.51 23.89 67.73 25.12 74.19 C25.35 75.14 25.57 76.1 25.8 77.08 C26.24 80.28 26.27 82.15 25.12 85.19 C21.31 89.26 16 91.64 11.12 94.19 C9.72 94.96 8.32 95.74 6.93 96.52 C-3.33 102.19 -3.33 102.19 -5.88 102.19 C-6.78 100.68 -7.63 99.13 -8.44 97.56 C-12.76 90.11 -19.74 85.78 -27.88 83.19 C-29.88 82.73 -31.83 82.44 -33.88 82.19 C-33.88 81.53 -33.88 80.87 -33.88 80.19 C-32.63 79.54 -31.38 78.89 -30.12 78.25 C-29.43 77.89 -28.73 77.53 -28.02 77.16 C-23.66 75.18 -19.35 74.92 -14.62 74.62 C-13.98 74.58 -13.33 74.54 -12.66 74.49 C-11.06 74.39 -9.47 74.29 -7.88 74.19 C-7.71 73.53 -7.71 73.53 -6.88 70.19 C-10.55 66.8 -16.34 67.75 -21.02 67.88 C-30.07 68.42 -36.08 72.72 -42.75 78.58 C-44.88 80.19 -44.88 80.19 -47.88 80.19 C-47.93 79.8 -47.93 79.8 -48.23 77.85 C-48.66 74.98 -49.09 72.11 -49.53 69.24 C-49.72 68 -49.9 66.76 -50.09 65.52 C-50.36 63.74 -50.63 61.95 -50.9 60.17 C-51.06 59.09 -51.23 58.02 -51.39 56.91 C-51.88 54.19 -51.88 54.19 -52.88 51.19 C-52.94 49.79 -52.96 48.4 -52.94 47 C-52.93 46.28 -52.92 45.57 -52.91 44.83 C-52.9 44.29 -52.89 43.75 -52.88 43.19 C-49.75 41.74 -46.63 40.31 -43.5 38.88 C-43.06 38.67 -43.06 38.67 -40.86 37.65 C-34.97 34.97 -29.1 32.93 -22.88 31.19 C-21.88 30.86 -20.89 30.53 -19.88 30.19 C-20.04 29.36 -20.04 29.36 -20.88 25.19 C-31.35 25.24 -41.17 29.36 -50.7 33.38 C-52.88 34.19 -52.88 34.19 -55.88 34.19 C-56.25 33.28 -56.62 32.37 -57 31.44 C-59.39 26.68 -63.35 24.61 -68.25 22.94 C-69.12 22.69 -69.98 22.44 -70.88 22.19 C-67.57 18.42 -64.06 16.51 -59.62 14.38 C-58.92 14.03 -58.22 13.69 -57.49 13.33 C-55.29 12.27 -53.08 11.23 -50.88 10.19 C-50.2 9.87 -49.53 9.55 -48.84 9.22 C-12.45 -7.92 -12.45 -7.92 0 0 Z " fill="#424342" transform="translate(343.875,237.8125)"/>
<path d="M0 0 C2.67 2.67 2.86 5.42 3.5 9 C3.76 10.37 4.01 11.73 4.27 13.1 C4.33 13.43 4.33 13.43 4.64 15.12 C5.11 17.57 5.65 20 6.19 22.44 C6.47 23.96 6.74 25.48 7 27 C7.14 27.72 7.29 28.44 7.44 29.18 C7.71 31.43 7.77 32.86 7 35 C4.94 36.68 2.76 37.92 0.46 39.25 C-6.17 43.98 -9.58 52.45 -12 60 C-16.2 58.51 -19.6 56.44 -23.25 53.94 C-23.52 53.76 -23.52 53.76 -24.89 52.83 C-28.83 50.17 -28.83 50.17 -30 49 C-31.17 33.5 -23.7 19.69 -13.98 8.17 C-5.39 -1.23 -5.39 -1.23 0 0 Z " fill="#464646" transform="translate(106,273)"/>
<path d="M0 0 C2.16 -0 4.32 -0.01 6.47 -0.01 C13.25 -0.03 20.02 -0.03 26.8 -0.04 C34.58 -0.04 42.36 -0.06 50.14 -0.09 C56.2 -0.11 62.26 -0.12 68.31 -0.12 C71.92 -0.12 75.52 -0.13 79.12 -0.15 C82.49 -0.16 85.86 -0.17 89.23 -0.16 C90.47 -0.16 91.7 -0.16 92.94 -0.17 C94.63 -0.18 96.31 -0.18 98 -0.17 C98.47 -0.17 98.47 -0.17 100.85 -0.17 C103.84 0.27 105.22 1.08 107.35 3.2 C107.6 6.39 107.6 6.39 107.35 9.2 C106.71 8.88 106.07 8.56 105.42 8.24 C101.34 6.86 97.5 6.78 93.22 6.64 C91.62 6.58 90.01 6.51 88.4 6.45 C87.7 6.42 86.99 6.4 86.26 6.37 C84.35 6.2 84.35 6.2 81.35 5.2 C79.79 5.11 78.22 5.07 76.66 5.07 C76.18 5.07 76.18 5.07 73.77 5.06 C72.74 5.06 71.7 5.07 70.64 5.07 C70.1 5.07 70.1 5.07 67.37 5.06 C64.49 5.06 61.61 5.07 58.72 5.07 C55.87 5.08 53.03 5.07 50.18 5.06 C39.32 5.06 28.52 5.21 17.68 5.81 C5.01 6.48 -7.69 6.55 -20.37 6.73 C-23.91 6.78 -27.45 6.84 -30.99 6.89 C-37.88 7 -44.77 7.1 -51.65 7.2 C-50.78 2.33 -50.78 2.33 -49.65 1.2 C-48.1 1 -48.1 1 -46.04 0.89 C-45.26 0.85 -44.47 0.81 -43.67 0.77 C-43.23 0.75 -43.23 0.75 -41.01 0.65 C-40.08 0.61 -39.16 0.57 -38.2 0.52 C-25.47 0.01 -12.74 0.02 0 0 Z " fill="#9A9B9D" transform="translate(170.65218663215637,269.7998113632202)"/>
<path d="M0 0 C2.38 0.94 2.38 0.94 4 3 C4.1 4.99 4.1 4.99 4 7.31 C3.86 11.05 4.15 13.38 6.51 16.47 C9.17 19.2 12.16 21.55 15.17 23.88 C17 26 17 26 17.33 29.19 C17 32 17 32 16 33 C11.19 33.47 8.32 33.2 4.42 30.29 C1.98 28.07 0.01 25.61 -2 23 C-2.33 23.34 -2.33 23.34 -4 25.06 C-5 26.05 -6 27.02 -7 28 C-7.64 28.62 -8.28 29.25 -8.94 29.89 C-9.62 30.52 -10.3 31.16 -11 31.81 C-11.64 32.42 -12.28 33.02 -12.94 33.64 C-15.5 35.33 -16.99 35.35 -20 35 C-21.88 33.81 -21.88 33.81 -23 32 C-22.69 27.42 -20.95 25.58 -17.62 22.56 C-11.34 16.5 -11.34 16.5 -10 12 C-10.16 10.62 -10.37 9.24 -10.62 7.88 C-10.98 5.84 -10.98 5.84 -11 4 C-7.78 0.09 -4.95 -0.74 0 0 Z " fill="#0C0C0C" transform="translate(227,184)"/>
<path d="M0 0 C5.46 2.48 9.89 5.45 12.3 11.12 C12.33 12.46 12.33 13.79 12.3 15.12 C9.47 16.12 6.64 17.09 3.8 18.06 C3.41 18.2 3.41 18.2 1.4 18.9 C-3.66 20.63 -8.37 21.64 -13.7 22.12 C-14.2 19.38 -14.7 16.63 -15.2 13.88 C-15.34 13.1 -15.49 12.32 -15.63 11.52 C-15.77 10.77 -15.9 10.01 -16.04 9.23 C-16.17 8.54 -16.29 7.85 -16.42 7.14 C-16.7 5.11 -16.75 3.17 -16.7 1.12 C-11.33 -1.93 -5.83 -1.89 0 0 Z " fill="#F3F3F3" transform="translate(315.69921875,329.875)"/>
<path d="M0 0 C3.18 1.71 5.38 3.77 7 7 C7.45 10.9 7.38 14.12 5.81 17.75 C1.17 23.52 1.17 23.52 -2.89 24.42 C-6.79 24.69 -9.28 24.19 -12.38 21.75 C-15.7 18.52 -16.86 16.3 -17.38 11.62 C-17.26 7.43 -15.61 5.21 -13 2 C-9.31 -1.15 -4.57 -0.72 0 0 Z " fill="#0A0704" transform="translate(284,166)"/>
<path d="M0 0 C5.09 1.78 10.05 3.86 15 6 C15 6.33 15 6.66 15 7 C14.07 7 13.15 7.01 12.19 7.01 C8.71 7.03 5.24 7.09 1.77 7.15 C0.27 7.18 -1.23 7.19 -2.72 7.2 C-19.24 7.27 -19.24 7.27 -25 13 C-26.19 14.66 -26.19 14.66 -27 16 C-30.71 15.5 -32.68 14.99 -35 12 C-35.75 8.59 -35.69 5.42 -35 2 C-27.42 -8.27 -10.38 -3.11 0 0 Z " fill="#414141" transform="translate(137,253)"/>
<path d="M0 0 C3.07 1.34 5.46 2.93 7 6 C7.5 11.09 7.82 15.52 5.31 20.06 C1.99 22.85 -0.63 23.76 -4.88 24.5 C-9.34 23.79 -12.04 21.35 -15 18 C-16.26 14.22 -16.69 10.95 -16 7 C-12.15 0.31 -7.43 -0.94 0 0 Z " fill="#090704" transform="translate(174,169)"/>
<path d="M0 0 C0.72 3.65 1.43 7.3 2.14 10.94 C2.38 12.18 2.62 13.42 2.86 14.67 C3.21 16.45 3.56 18.23 3.91 20.02 C4.12 21.09 4.33 22.17 4.54 23.27 C5 26 5 26 5 29 C0.55 28.41 -3.19 27.27 -7.31 25.5 C-8.36 25.06 -9.41 24.61 -10.49 24.16 C-13 23 -13 23 -14 22 C-14.63 14.72 -10.33 8.35 -5.88 2.88 C-3.42 0 -3.42 0 0 0 Z " fill="#424242" transform="translate(116,316)"/>
<path d="M0 0 C3.97 0.37 6.29 2.75 9.06 5.38 C9.5 5.77 9.93 6.17 10.38 6.59 C11.59 7.71 12.8 8.86 14 10 C14.62 10.51 15.23 11.02 15.87 11.54 C17 13 17 13 17.05 14.82 C15.44 18.16 12.96 20.33 10.25 22.81 C9.72 23.33 9.2 23.84 8.66 24.37 C7.15 25.76 5.77 26.97 4 28 C1.11 27.82 1.11 27.82 -1 27 C-1.25 25.23 -1.25 25.23 -1 23 C0.75 21.08 0.75 21.08 3 19.25 C3.74 18.64 4.49 18.02 5.25 17.39 C5.83 16.93 6.41 16.47 7 16 C6.46 12.15 4.88 10.68 1.94 8.25 C1.2 7.64 0.47 7.02 -0.29 6.39 C-0.85 5.93 -1.42 5.47 -2 5 C-1.12 1.12 -1.12 1.12 0 0 Z " fill="#F2F2F3" transform="translate(218,303)"/>
<path d="M0 0 C0.35 0.14 0.35 0.14 2.11 0.86 C1.96 5.87 -0.82 8.19 -4.2 11.5 C-5.89 12.86 -5.89 12.86 -7.89 12.86 C-4.96 16.81 -1.76 19.82 2.11 22.86 C1.78 24.18 1.45 25.5 1.11 26.86 C-0.69 27.51 -0.69 27.51 -2.89 27.86 C-4.54 26.87 -4.54 26.87 -6.12 25.33 C-6.41 25.06 -6.41 25.06 -7.86 23.68 C-8.45 23.1 -9.04 22.52 -9.64 21.92 C-10.24 21.34 -10.84 20.76 -11.46 20.17 C-12.95 18.74 -14.43 17.3 -15.89 15.86 C-15 11.14 -12.44 8.85 -9.14 5.54 C-8.61 4.98 -8.09 4.42 -7.55 3.84 C-3.57 -0.18 -3.57 -0.18 0 0 Z " fill="#F4F4F4" transform="translate(187.890625,303.14453125)"/>
<path d="M0 0 C1.68 0.29 3.34 0.62 5 1 C4.39 6.68 2.93 11.74 1.06 17.12 C0.8 17.91 0.53 18.7 0.26 19.5 C-0.48 21.68 -1.24 23.84 -2 26 C-2.34 26.99 -2.68 27.98 -3.03 29 C-3.35 29.66 -3.67 30.32 -4 31 C-6.62 31.81 -6.62 31.81 -9 32 C-8.6 24.51 -6.98 17.99 -4.5 10.94 C-4.34 10.46 -4.34 10.46 -3.53 8.06 C-1.16 1.16 -1.16 1.16 0 0 Z " fill="#F4F4F5" transform="translate(205,301)"/>
<path d="M0 0 C0.66 0.33 1.32 0.66 2 1 C-5.92 8.92 -13.84 16.84 -22 25 C-22.66 24.67 -23.32 24.34 -24 24 C-16.39 15.51 -8.54 7.55 0 0 Z " fill="#424242" transform="translate(81,69)"/>
<path d="M0 0 C0.66 0.33 1.32 0.66 2 1 C-3.61 6.61 -9.22 12.22 -15 18 C-15.66 17.67 -16.32 17.34 -17 17 C-11.66 10.86 -6.3 5.18 0 0 Z " fill="#454646" transform="translate(276,77)"/>
</svg>
